<mxfile host="app.diagrams.net" modified="2024-07-07T22:09:43.525Z" agent="Mozilla/5.0 (Windows NT 10.0; Win64; x64; rv:127.0) Gecko/20100101 Firefox/127.0" etag="OpquE6UOJMWK_zcxMEum" version="24.6.4" type="device">
  <diagram name="StrÃ¡nka-1" id="O7ozUKQFASO1LDnZj69G">
    <mxGraphModel dx="1050" dy="537" grid="1" gridSize="10" guides="1" tooltips="1" connect="1" arrows="1" fold="1" page="1" pageScale="1" pageWidth="827" pageHeight="1169" math="0" shadow="0">
      <root>
        <mxCell id="0" />
        <mxCell id="1" parent="0" />
        <mxCell id="G8AwyMIWm3M0BivnleBA-7" value="" style="rounded=0;whiteSpace=wrap;html=1;strokeColor=none;fillColor=#C7C7C7;" vertex="1" parent="1">
          <mxGeometry x="480" y="200" width="120" height="180" as="geometry" />
        </mxCell>
        <mxCell id="G8AwyMIWm3M0BivnleBA-1" value="" style="endArrow=none;dashed=1;html=1;dashPattern=1 3;strokeWidth=2;rounded=0;" edge="1" parent="1">
          <mxGeometry width="50" height="50" relative="1" as="geometry">
            <mxPoint x="320" y="380" as="sourcePoint" />
            <mxPoint x="320" y="200" as="targetPoint" />
          </mxGeometry>
        </mxCell>
        <mxCell id="G8AwyMIWm3M0BivnleBA-2" value="" style="endArrow=classic;html=1;rounded=0;strokeColor=#000000;startFillColor=#FAFAFA;endFillColor=#FFFFFF;" edge="1" parent="1">
          <mxGeometry width="50" height="50" relative="1" as="geometry">
            <mxPoint x="260" y="220" as="sourcePoint" />
            <mxPoint x="260" y="260" as="targetPoint" />
          </mxGeometry>
        </mxCell>
        <mxCell id="G8AwyMIWm3M0BivnleBA-3" value="" style="endArrow=none;html=1;rounded=0;exitX=0;exitY=1;exitDx=0;exitDy=0;" edge="1" parent="1" source="G8AwyMIWm3M0BivnleBA-7">
          <mxGeometry width="50" height="50" relative="1" as="geometry">
            <mxPoint x="480" y="400" as="sourcePoint" />
            <mxPoint x="480" y="200" as="targetPoint" />
          </mxGeometry>
        </mxCell>
        <mxCell id="G8AwyMIWm3M0BivnleBA-4" value="" style="curved=1;endArrow=classic;html=1;rounded=0;" edge="1" parent="1">
          <mxGeometry width="50" height="50" relative="1" as="geometry">
            <mxPoint x="410" y="310" as="sourcePoint" />
            <mxPoint x="300" y="310" as="targetPoint" />
            <Array as="points">
              <mxPoint x="360" y="340" />
            </Array>
          </mxGeometry>
        </mxCell>
        <mxCell id="G8AwyMIWm3M0BivnleBA-5" value="" style="endArrow=classic;html=1;rounded=0;strokeColor=#000000;startFillColor=#FAFAFA;endFillColor=#FFFFFF;" edge="1" parent="1">
          <mxGeometry width="50" height="50" relative="1" as="geometry">
            <mxPoint x="410" y="260" as="sourcePoint" />
            <mxPoint x="410" y="300" as="targetPoint" />
          </mxGeometry>
        </mxCell>
        <mxCell id="G8AwyMIWm3M0BivnleBA-6" value="" style="endArrow=classic;html=1;rounded=0;strokeColor=#000000;startFillColor=#FAFAFA;endFillColor=#FFFFFF;" edge="1" parent="1">
          <mxGeometry width="50" height="50" relative="1" as="geometry">
            <mxPoint x="540" y="300" as="sourcePoint" />
            <mxPoint x="540" y="340" as="targetPoint" />
          </mxGeometry>
        </mxCell>
        <mxCell id="G8AwyMIWm3M0BivnleBA-8" value="" style="verticalLabelPosition=bottom;verticalAlign=top;html=1;shape=mxgraph.basic.tick;fillColor=#4C9C2F;" vertex="1" parent="1">
          <mxGeometry x="270" y="250" width="20" height="20" as="geometry" />
        </mxCell>
        <mxCell id="G8AwyMIWm3M0BivnleBA-9" value="" style="verticalLabelPosition=bottom;verticalAlign=top;html=1;shape=mxgraph.basic.x;fillColor=#BF1515;" vertex="1" parent="1">
          <mxGeometry x="550" y="320" width="20" height="20" as="geometry" />
        </mxCell>
      </root>
    </mxGraphModel>
  </diagram>
</mxfile>
